HIERARCHY
ROOT Pelvis
{
	OFFSET 0.000000 0.000000 0.000000
	CHANNELS 6 Xposition Yposition Zposition Xrotation Yrotation Zrotation
	JOINT LeftUpLeg_virtual
	{
		OFFSET 0.000000 0.000000 0.000000
		CHANNELS 3 Xrotation Yrotation Zrotation
		JOINT LeftUpLeg
		{
			OFFSET 18.735201 -5.666702 -4.541200
			CHANNELS 3 Xrotation Yrotation Zrotation
			JOINT LeftLeg
			{
				OFFSET -0.021200 -31.938179 0.493100
				CHANNELS 3 Xrotation Yrotation Zrotation
				JOINT LeftFoot
				{
					OFFSET 0.021200 -31.938179 -4.336299
					CHANNELS 3 Xrotation Yrotation Zrotation
					JOINT LeftToeBase
					{
						OFFSET 0.943001 -26.722000 15.023500
						CHANNELS 3 Xrotation Yrotation Zrotation
						End Site
						{
							OFFSET 0 0 0
						}
					}
				}
			}
		}
	}
	JOINT RightUpLeg_virtual
	{
		OFFSET 0.000000 0.000000 0.000000
		CHANNELS 3 Xrotation Yrotation Zrotation
		JOINT RightUpLeg
		{
			OFFSET -18.735201 -5.666702 -4.541200
			CHANNELS 3 Xrotation Yrotation Zrotation
			JOINT RightLeg
			{
				OFFSET 0.018946 -31.938133 0.493100
				CHANNELS 3 Xrotation Yrotation Zrotation
				JOINT RightFoot
				{
					OFFSET -0.018946 -31.938126 -4.336299
					CHANNELS 3 Xrotation Yrotation Zrotation
					JOINT RightToeBase
					{
						OFFSET -0.943001 -26.722004 15.023500
						CHANNELS 3 Xrotation Yrotation Zrotation
						End Site
						{
							OFFSET 0 0 0
						}
					}
				}
			}
		}
	}
	JOINT Hips_virtual
	{
		OFFSET 0.000000 0.000000 0.000000
		CHANNELS 3 Xrotation Yrotation Zrotation
		JOINT Hips
		{
			OFFSET -0.000000 -0.000000 -0.000000
			CHANNELS 3 Xrotation Yrotation Zrotation
			JOINT Spine
			{
				OFFSET 0.000000 10.199997 -0.299500
				CHANNELS 3 Xrotation Yrotation Zrotation
				JOINT Spine1
				{
					OFFSET 0.000000 11.900002 -1.516600
					CHANNELS 3 Xrotation Yrotation Zrotation
					JOINT Spine2
					{
						OFFSET 0.000000 13.600006 -2.842500
						CHANNELS 3 Xrotation Yrotation Zrotation
						JOINT Neck_virtual
						{
							OFFSET 0.000000 0.000000 0.000000
							CHANNELS 3 Xrotation Yrotation Zrotation
							JOINT Neck
							{
								OFFSET 0.000000 9.624100 -2.890100
								CHANNELS 3 Xrotation Yrotation Zrotation
								JOINT Head
								{
									OFFSET 0.000000 14.068802 -1.351900
									CHANNELS 3 Xrotation Yrotation Zrotation
									End Site
									{
										OFFSET 0 0 0
									}
								}
							}
						}
						JOINT LeftShoulder_virtual
						{
							OFFSET 0.000000 0.000000 0.000000
							CHANNELS 3 Xrotation Yrotation Zrotation
							JOINT LeftShoulder
							{
								OFFSET 15.263000 10.923401 -0.547700
								CHANNELS 3 Xrotation Yrotation Zrotation
								JOINT LeftArm
								{
									OFFSET 25.438599 -2.830597 -13.032500
									CHANNELS 3 Xrotation Yrotation Zrotation
									JOINT LeftForeArm
									{
										OFFSET 29.960503 0.000000 0.000000
										CHANNELS 3 Xrotation Yrotation Zrotation
										JOINT LeftHand
										{
											OFFSET 27.849251 0.000000 0.000000
											CHANNELS 3 Xrotation Yrotation Zrotation
											End Site
											{
												OFFSET 0 0 0
											}
										}
									}
								}
							}
						}
						JOINT RightShoulder_virtual
						{
							OFFSET 0.000000 0.000000 0.000000
							CHANNELS 3 Xrotation Yrotation Zrotation
							JOINT RightShoulder
							{
								OFFSET -15.263000 10.923401 -0.547700
								CHANNELS 3 Xrotation Yrotation Zrotation
								JOINT RightArm
								{
									OFFSET -25.438599 -2.830597 -13.032500
									CHANNELS 3 Xrotation Yrotation Zrotation
									JOINT RightForeArm
									{
										OFFSET -29.960503 0.000000 0.000000
										CHANNELS 3 Xrotation Yrotation Zrotation
										JOINT RightHand
										{
											OFFSET -27.849251 0.000000 0.000000
											CHANNELS 3 Xrotation Yrotation Zrotation
											End Site
											{
												OFFSET 0 0 0
											}
										}
									}
								}
							}
						}
					}
				}
			}
		}
	}
}
MOTION
Frames: 13
Frame Time: 0.03333333
-2.468480 87.555153 1.872835 0.000000 0.000000 0.000000 0.098243 -44.403548 -0.348270 -41.929094 -1.565909 14.029898 42.033585 -6.878768 -2.523959 -8.079073 -5.727441 -13.835000 0.000000 0.000000 0.000000 14.874082 -32.813246 3.311454 -14.197247 -15.804726 -17.511567 29.700063 12.857345 -4.824381 -23.275963 9.274618 11.526655 0.000000 0.000000 0.000000 4.846000 -6.045958 1.766218 -21.829980 -34.373852 -7.081104 14.959875 1.528359 0.761815 8.853474 0.435595 -0.374634 0.000000 0.000000 0.000000 11.478442 -3.486905 -0.698613 1.836466 -3.140066 -0.030304 0.000000 0.000000 0.000000 10.271773 1.868689 0.219379 1.763866 -5.061237 -6.304914 -7.512546 1.650024 -59.964942 -5.113262 -48.483934 -6.996247 0.000000 0.000000 0.000000 12.259172 2.497247 0.058421 2.645347 2.346360 10.414717 -2.047703 -5.602628 60.768869 -5.849961 52.652446 12.910828 0.000000 0.000000 0.000000 
-2.604303 87.594635 1.924599 0.000000 0.000000 0.000000 0.449015 -45.108881 -0.028706 -41.682790 -1.781329 14.177998 41.547894 -6.310284 -2.691268 -8.407165 -5.044357 -13.685345 0.000000 0.000000 0.000000 14.810237 -34.062959 3.418675 -14.655530 -16.113292 -17.730773 30.178300 13.234270 -5.017593 -23.006806 9.747550 11.538814 0.000000 0.000000 0.000000 4.325450 -7.568582 1.840182 -21.453699 -34.317193 -6.893569 14.795894 0.847218 0.820234 8.747236 0.069209 -0.348823 0.000000 0.000000 0.000000 11.305346 -3.879429 -0.632224 1.795375 -3.229403 -0.051615 0.000000 0.000000 0.000000 10.324807 1.344205 0.316799 1.778616 -6.027393 -6.495290 -7.737571 1.851536 -59.809747 -5.153873 -47.875429 -7.019844 0.000000 0.000000 0.000000 12.166374 2.027164 0.202232 2.780630 1.167017 10.478788 -1.464282 -5.968621 61.067929 -5.993072 53.596098 13.060788 0.000000 0.000000 0.000000 
-2.738989 87.660889 1.978559 0.000000 0.000000 0.000000 0.810743 -45.781310 0.289412 -41.433959 -1.981859 14.321631 41.070829 -5.726974 -2.856038 -8.728334 -4.349832 -13.527552 0.000000 0.000000 0.000000 14.750770 -35.256473 3.555136 -15.105498 -16.410586 -17.907327 30.650911 13.559039 -5.202096 -22.720942 10.178508 11.532002 0.000000 0.000000 0.000000 3.798164 -9.071947 1.898218 -21.035808 -34.255673 -6.673371 14.697744 0.172013 0.888688 8.681148 -0.292074 -0.319955 0.000000 0.000000 0.000000 11.144385 -4.276753 -0.581445 1.758409 -3.323950 -0.076152 0.000000 0.000000 0.000000 10.354963 0.826875 0.393879 1.767490 -6.988948 -6.730510 -8.052078 2.119007 -59.689255 -5.260684 -47.267655 -7.088828 0.000000 0.000000 0.000000 12.094583 1.564435 0.333932 2.939714 -0.016667 10.519059 -0.816500 -6.371575 61.256449 -6.067263 54.449291 13.131428 0.000000 0.000000 0.000000 
-2.883134 87.715256 2.029379 0.000000 0.000000 0.000000 1.180294 -46.434047 0.611708 -41.191474 -2.173753 14.467338 40.586026 -5.131490 -3.014902 -9.058285 -3.646959 -13.357150 0.000000 0.000000 0.000000 14.697220 -36.342935 3.708890 -15.543470 -16.681100 -18.047002 31.132627 13.819748 -5.364612 -22.405785 10.550636 11.519760 0.000000 0.000000 0.000000 3.264845 -10.558642 1.952941 -20.520504 -34.186022 -6.302168 14.586584 -0.474993 0.949110 8.614665 -0.636749 -0.297760 0.000000 0.000000 0.000000 11.018060 -4.680835 -0.559437 1.737189 -3.426202 -0.111350 0.000000 0.000000 0.000000 10.391498 0.331904 0.462854 1.762527 -7.912631 -6.945697 -8.334829 2.395136 -59.579938 -5.352955 -46.658327 -7.150478 0.000000 0.000000 0.000000 12.042229 1.120231 0.458850 3.116261 -1.173993 10.569023 -0.137479 -6.753399 61.359496 -6.084941 55.257429 13.144789 0.000000 0.000000 0.000000 
-3.029966 87.760750 2.084524 0.000000 0.000000 0.000000 1.569346 -47.112357 0.938727 -40.940953 -2.366038 14.606018 40.120115 -4.544014 -3.172338 -9.384934 -2.953596 -13.194719 0.000000 0.000000 0.000000 14.666935 -37.443097 3.907742 -15.972879 -16.963357 -18.151446 31.603739 13.978745 -5.499985 -22.068343 10.826790 11.481332 0.000000 0.000000 0.000000 2.738465 -11.944240 1.995438 -19.933825 -33.973002 -5.807017 14.499645 -1.076446 1.012807 8.566558 -0.957690 -0.276385 0.000000 0.000000 0.000000 10.893750 -5.063303 -0.546912 1.713644 -3.520154 -0.144622 0.000000 0.000000 0.000000 10.408798 -0.131871 0.515613 1.740755 -8.755927 -7.169568 -8.658393 2.747767 -59.541122 -5.500979 -46.063247 -7.258293 0.000000 0.000000 0.000000 11.980088 0.694395 0.554895 3.276925 -2.305720 10.544336 0.406272 -7.226348 61.322265 -6.160003 56.038827 13.133207 0.000000 0.000000 0.000000 
-3.161510 87.795975 2.136257 0.000000 0.000000 0.000000 1.965439 -47.785045 1.259381 -40.694267 -2.548660 14.734909 39.664981 -3.938103 -3.322886 -9.704655 -2.247589 -13.014593 0.000000 0.000000 0.000000 14.650266 -38.520003 4.120628 -16.396764 -17.241397 -18.245298 32.072492 14.100009 -5.634995 -21.721123 11.072974 11.419220 0.000000 0.000000 0.000000 2.218240 -13.279836 2.014934 -19.339662 -33.749932 -5.321592 14.490168 -1.671976 1.114762 8.565799 -1.275306 -0.237628 0.000000 0.000000 0.000000 10.781125 -5.423073 -0.538279 1.693701 -3.606605 -0.173612 0.000000 0.000000 0.000000 10.433231 -0.567330 0.549442 1.725407 -9.541650 -7.408762 -8.878673 3.060438 -59.573415 -5.609763 -45.479487 -7.373467 0.000000 0.000000 0.000000 11.910940 0.284670 0.643990 3.424595 -3.422754 10.536440 0.958858 -7.752146 61.221315 -6.192829 56.660145 13.075684 0.000000 0.000000 0.000000 
-3.301556 87.858269 2.152975 0.000000 0.000000 0.000000 2.394346 -48.479791 1.588957 -40.423337 -2.728934 14.853850 39.235800 -3.325125 -3.462791 -10.012050 -1.538286 -12.819892 0.000000 0.000000 0.000000 14.650831 -39.582975 4.342560 -16.814983 -17.511096 -18.334746 32.535548 14.176817 -5.773158 -21.359349 11.288372 11.321688 0.000000 0.000000 0.000000 1.704856 -14.647727 2.011100 -18.879464 -33.629673 -4.963973 14.439833 -2.245042 1.208068 8.547301 -1.579486 -0.206006 0.000000 0.000000 0.000000 10.690425 -5.760865 -0.513740 1.681354 -3.686870 -0.188603 0.000000 0.000000 0.000000 10.428659 -0.981399 0.592174 1.691547 -10.299610 -7.557781 -9.231696 3.496598 -59.492580 -5.778098 -44.856707 -7.456704 0.000000 0.000000 0.000000 11.850869 -0.105512 0.748411 3.580557 -4.510832 10.631441 1.671475 -8.233058 61.187573 -6.119806 57.101276 13.006343 0.000000 0.000000 0.000000 
-3.432406 87.941994 2.154892 0.000000 0.000000 0.000000 2.851468 -49.168920 1.918429 -40.124957 -2.897765 14.956282 38.847620 -2.729171 -3.614335 -10.303789 -0.840238 -12.658520 0.000000 0.000000 0.000000 14.657772 -40.678182 4.586229 -17.247640 -17.788664 -18.412122 32.965020 14.201559 -5.907358 -21.003462 11.458406 11.189320 0.000000 0.000000 0.000000 1.200017 -15.982947 1.981571 -18.508862 -33.472722 -4.726056 14.361806 -2.769575 1.291003 8.517781 -1.857590 -0.181445 0.000000 0.000000 0.000000 10.619491 -6.062853 -0.511029 1.675605 -3.751311 -0.210724 0.000000 0.000000 0.000000 10.440649 -1.357226 0.628251 1.678000 -10.968024 -7.682219 -9.410656 3.890613 -59.455089 -5.864171 -44.216353 -7.515412 0.000000 0.000000 0.000000 11.808716 -0.468670 0.843139 3.746487 -5.535910 10.722758 2.400232 -8.666899 61.112004 -5.991129 57.463741 12.892412 0.000000 0.000000 0.000000 
-3.576095 88.030716 2.193792 0.000000 0.000000 0.000000 3.318565 -49.782524 2.252680 -39.825979 -3.042878 15.064209 38.454918 -2.117543 -3.770977 -10.603436 -0.126815 -12.497272 0.000000 0.000000 0.000000 14.644327 -41.719239 4.804475 -17.688554 -18.047175 -18.498975 33.382427 14.206198 -6.038850 -20.648627 11.609920 11.045000 0.000000 0.000000 0.000000 0.694342 -17.312325 1.932391 -18.237858 -33.450196 -4.566451 14.245343 -3.267038 1.369139 8.472586 -2.120477 -0.161408 0.000000 0.000000 0.000000 10.546898 -6.345800 -0.509701 1.666008 -3.812766 -0.229307 0.000000 0.000000 0.000000 10.456787 -1.705779 0.662934 1.675169 -11.596095 -7.764806 -9.677636 4.342687 -59.381275 -5.999848 -43.586381 -7.576680 0.000000 0.000000 0.000000 11.781700 -0.798835 0.937608 3.922067 -6.485683 10.853857 3.138982 -9.084430 60.973160 -5.790797 57.673926 12.705895 0.000000 0.000000 0.000000 
-3.716389 88.122826 2.204895 0.000000 0.000000 0.000000 3.771005 -50.386206 2.590265 -39.558181 -3.188924 15.178461 38.102289 -1.500992 -3.932944 -10.884168 0.591831 -12.340832 0.000000 0.000000 0.000000 14.613758 -42.767598 5.017677 -18.154175 -18.301859 -18.587342 33.761850 14.190458 -6.156703 -20.313275 11.734281 10.900541 0.000000 0.000000 0.000000 0.205477 -18.597997 1.862214 -17.994926 -33.445121 -4.473439 14.102673 -3.718961 1.445547 8.416130 -2.358545 -0.142817 0.000000 0.000000 0.000000 10.459955 -6.601116 -0.508896 1.646525 -3.864638 -0.243827 0.000000 0.000000 0.000000 10.475430 -2.023791 0.694636 1.681477 -12.162487 -7.817686 -9.920191 4.770406 -59.314387 -6.125024 -42.982749 -7.633229 0.000000 0.000000 0.000000 11.736288 -1.098877 1.020976 4.066273 -7.358028 10.976046 3.744800 -9.585922 60.774709 -5.639663 57.762288 12.518567 0.000000 0.000000 0.000000 
-3.856136 88.215149 2.207453 0.000000 0.000000 0.000000 4.221751 -50.999786 2.942274 -39.313845 -3.341742 15.302796 37.819106 -0.898376 -4.103071 -11.133121 1.295207 -12.210185 0.000000 0.000000 0.000000 14.592805 -43.814366 5.239975 -18.616389 -18.559514 -18.674490 34.138098 14.152256 -6.258432 -19.974214 11.829644 10.764237 0.000000 0.000000 0.000000 -0.261922 -19.839205 1.784878 -17.789224 -33.503792 -4.417861 13.954362 -4.127615 1.509969 8.359773 -2.573477 -0.130412 0.000000 0.000000 0.000000 10.404499 -6.832605 -0.518420 1.639494 -3.909183 -0.261159 0.000000 0.000000 0.000000 10.504657 -2.309603 0.727693 1.707042 -12.666855 -7.824865 -10.077948 5.178763 -59.206463 -6.198632 -42.360666 -7.643530 0.000000 0.000000 0.000000 11.721489 -1.370449 1.089146 4.229416 -8.153479 11.069723 4.420580 -10.023260 60.524410 -5.377884 57.795667 12.240976 0.000000 0.000000 0.000000 
-3.990378 88.301361 2.241741 0.000000 0.000000 0.000000 4.674386 -51.568126 3.305304 -39.083333 -3.484043 15.439397 37.567236 -0.299695 -4.279347 -11.365658 1.994442 -12.100314 0.000000 0.000000 0.000000 14.585577 -44.807407 5.472919 -19.056783 -18.805017 -18.755985 34.549122 14.118692 -6.343533 -19.615562 11.918598 10.662543 0.000000 0.000000 0.000000 -0.707804 -21.053563 1.709454 -17.570976 -33.646734 -4.371803 13.793819 -4.500689 1.578132 8.298080 -2.769920 -0.115143 0.000000 0.000000 0.000000 10.362010 -7.034953 -0.517495 1.636421 -3.944175 -0.270223 0.000000 0.000000 0.000000 10.509875 -2.572249 0.767934 1.720082 -13.138941 -7.771808 -10.395060 5.664752 -59.025928 -6.349776 -41.765473 -7.652296 0.000000 0.000000 0.000000 11.697338 -1.613804 1.149578 4.372504 -8.872385 11.163600 5.015949 -10.497312 60.313412 -5.181094 57.782157 12.025913 0.000000 0.000000 0.000000 
-4.116193 88.382271 2.267559 0.000000 0.000000 0.000000 5.110926 -52.096503 3.645209 -38.864671 -3.609480 15.559948 37.311776 0.282060 -4.467801 -11.605043 2.683576 -12.023925 0.000000 0.000000 0.000000 14.559759 -45.742221 5.676764 -19.500132 -19.022292 -18.856750 35.004644 14.084412 -6.434426 -19.236705 12.005475 10.560993 0.000000 0.000000 0.000000 -1.155003 -22.224513 1.625146 -17.443217 -33.779862 -4.380491 13.615345 -4.837197 1.632148 8.226574 -2.946112 -0.107516 0.000000 0.000000 0.000000 10.316144 -7.217699 -0.530605 1.629906 -3.974335 -0.284641 0.000000 0.000000 0.000000 10.507776 -2.812507 0.799877 1.729488 -13.576674 -7.724359 -10.709562 6.141567 -58.839512 -6.497915 -41.182281 -7.655986 0.000000 0.000000 0.000000 11.679758 -1.839223 1.193800 4.512741 -9.550121 11.217021 5.672367 -11.110173 60.130376 -4.936230 57.509592 11.779493 0.000000 0.000000 0.000000 
